<svg width="100%" viewBox="0 0 680 480" role="img" xmlns="http://www.w3.org/2000/svg" style="">
  <title style="fill:rgb(0, 0, 0);stroke:none;color:rgb(255, 255, 255);stroke-width:1px;stroke-linecap:butt;stroke-linejoin:miter;opacity:1;font-family:&quot;Anthropic Sans&quot;, -apple-system, BlinkMacSystemFont, &quot;Segoe UI&quot;, sans-serif;font-size:16px;font-weight:400;text-anchor:start;dominant-baseline:auto">GitHub Logo</title>
  <desc style="fill:rgb(0, 0, 0);stroke:none;color:rgb(255, 255, 255);stroke-width:1px;stroke-linecap:butt;stroke-linejoin:miter;opacity:1;font-family:&quot;Anthropic Sans&quot;, -apple-system, BlinkMacSystemFont, &quot;Segoe UI&quot;, sans-serif;font-size:16px;font-weight:400;text-anchor:start;dominant-baseline:auto">شعار GitHub</desc>
  <g transform="translate(140,30)" style="fill:rgb(0, 0, 0);stroke:none;color:rgb(255, 255, 255);stroke-width:1px;stroke-linecap:butt;stroke-linejoin:miter;opacity:1;font-family:&quot;Anthropic Sans&quot;, -apple-system, BlinkMacSystemFont, &quot;Segoe UI&quot;, sans-serif;font-size:16px;font-weight:400;text-anchor:start;dominant-baseline:auto">
    <rect x="0" y="0" width="400" height="370" rx="40" fill="#24292F" style="fill:rgb(36, 41, 47);stroke:none;color:rgb(255, 255, 255);stroke-width:1px;stroke-linecap:butt;stroke-linejoin:miter;opacity:1;font-family:&quot;Anthropic Sans&quot;, -apple-system, BlinkMacSystemFont, &quot;Segoe UI&quot;, sans-serif;font-size:16px;font-weight:400;text-anchor:start;dominant-baseline:auto"/>
    <g transform="translate(100,30)" style="fill:rgb(0, 0, 0);stroke:none;color:rgb(255, 255, 255);stroke-width:1px;stroke-linecap:butt;stroke-linejoin:miter;opacity:1;font-family:&quot;Anthropic Sans&quot;, -apple-system, BlinkMacSystemFont, &quot;Segoe UI&quot;, sans-serif;font-size:16px;font-weight:400;text-anchor:start;dominant-baseline:auto">
      <path d="M100,20 C55,20 18,57 18,102 C18,138 41,169 74,180 C78,181 80,178 80,176 C80,174 80,167 80,158 C57,163 52,147 52,147 C48,137 42,134 42,134 C34,128 43,129 43,129 C52,129 57,139 57,139 C65,153 78,149 81,147 C82,141 84,137 87,134 C72,132 56,126 56,100 C56,92 59,86 63,81 C63,78 60,71 66,61 C66,61 73,59 81,74 C86,72 91,72 96,72 C101,72 106,72 111,74 C119,59 126,61 126,61 C132,71 129,78 129,81 C133,86 136,92 136,100 C136,126 120,132 105,134 C109,138 113,145 113,157 C113,170 113,180 113,182 C113,184 115,187 119,186 C152,175 175,144 175,108 C175,63 138,20 93,20Z" fill="white" style="fill:rgb(255, 255, 255);stroke:none;color:rgb(255, 255, 255);stroke-width:1px;stroke-linecap:butt;stroke-linejoin:miter;opacity:1;font-family:&quot;Anthropic Sans&quot;, -apple-system, BlinkMacSystemFont, &quot;Segoe UI&quot;, sans-serif;font-size:16px;font-weight:400;text-anchor:start;dominant-baseline:auto"/>
    </g>
  </g>
</svg>